<?xml version="1.0" encoding="utf-8"?>
<!-- Generator: Adobe Illustrator 22.0.0, SVG Export Plug-In . SVG Version: 6.00 Build 0)  -->
<svg version="1.1" id="Layer_1" xmlns="http://www.w3.org/2000/svg" xmlns:xlink="http://www.w3.org/1999/xlink" x="0px" y="0px"
	 viewBox="0 0 17.6 17.6" style="enable-background:new 0 0 17.6 17.6;" xml:space="preserve">
<style type="text/css">
	.st0{fill:#0E1129;}
</style>
<path class="st0" d="M16.1,4.6l-1.2,1.2l-3.1-3.1L13,1.5c0.5-0.5,1.4-0.5,1.9,0l1.2,1.2c0.3,0.3,0.4,0.6,0.4,1
	C16.5,4,16.4,4.4,16.1,4.6 M5.7,15l-4.4,1.2l1.2-4.4L11,3.4l3.1,3.1L5.7,15z M16.9,1.9l-1.2-1.2c-1-1-2.5-1-3.5,0L1.7,11.2
	c-0.1,0.1-0.1,0.1-0.1,0.2L0,16.9c-0.1,0.2,0,0.4,0.1,0.5c0.1,0.1,0.2,0.2,0.4,0.2c0,0,0.1,0,0.1,0L6.1,16c0.1,0,0.2-0.1,0.2-0.1
	L16.9,5.4c0.5-0.5,0.7-1.1,0.7-1.7S17.3,2.4,16.9,1.9"/>
</svg>
