<svg xmlns="http://www.w3.org/2000/svg" viewBox="0 0 425 425"><defs><style>.cls-1{fill:#921d76;}.cls-2{fill:#fff;}</style></defs><g id="Marks_Spencer" data-name="Marks&amp;Spencer"><path class="cls-1" d="M-5-5.408H430V430.408H-5Z"/><path class="cls-2" d="M169.606,114.739v94.7h-8.642V132.024l-31.261,60.5h-6.068L92.374,132.208V209.44H83.732v-94.7h9.01l34.019,65.279L160.6,114.739m101.137,95.988-15.815-16.734c-5.7,9.011-13.423,15.447-26.111,15.447-16.366,0-28.5-11.4-28.5-25.377,0-11.584,7.171-18.756,20.962-26.663-7.907-7.907-12.136-14.343-12.136-22.066,0-11.217,9.562-20.227,20.963-20.227,12.136,0,21.331,9.01,21.331,20.227,0,10.849-8.459,18.2-17.1,23.721l19.492,21.331L256.4,161.629l6.988,4.414-12.872,20.6,17.469,18.572m-50.2-41.926c-12.32,6.8-17.837,12.137-17.837,20.6,0,9.562,8.643,17.653,19.86,17.653,10.113,0,15.262-4.6,20.779-13.608ZM208.59,135.15c0,5.333,3.494,9.746,11.217,18.021,9.01-5.333,14.159-10.849,14.159-18.021,0-6.988-4.781-12.688-12.872-12.688a12.546,12.546,0,0,0-12.5,12.688m132.765-.184-7.907,2.758c-3.126-9.929-11.953-16.181-23.9-16.181-13.056,0-21.515,6.436-21.515,17.469,0,23.537,54.062,11.033,54.062,44.316,0,15.814-12.688,27.031-31.812,27.031-17.653,0-28.134-8.459-35.49-21.882l7.356-4.414c4.965,10.3,13.791,18.389,27.4,18.389,15.814,0,23.9-7.172,23.9-19.124,0-23.721-54.063-12.137-54.063-44.316,0-19.124,17.286-25.376,29.974-25.376,14.343-.184,27.4,6.435,32,21.33m-231.9,176.4H83.732v-66.56h24.427c13.183,0,21.842,6.591,21.842,16.672,0,8.659-5.04,13.183-9.952,15.509,8.272,2.844,12.666,8.272,12.666,15.768-.129,11.244-9.176,18.611-23.264,18.611m-19.645-5.816h19.9c10.339,0,16.672-4.911,16.672-12.8,0-7.755-6.462-12.02-18.223-12.02H89.806Zm0-30.631h17.707c9.952,0,16.155-4.911,16.155-12.924,0-7.108-5.945-11.373-15.768-11.373H89.806Zm115.415,36.447H198.63l-7.755-18.482H156.238l-7.755,18.482h-6.591l27.658-66.56H177.3m-18.611,42.133h29.856l-14.993-35.93Zm112.7,24.427H266.87L223.7,255.535v55.833h-6.2v-66.56h5.558l42.262,54.541V244.808h6.075m70.7,66.56h-7.884l-.258-.258L307.194,278.8l-8.788,9.305v23.264h-6.075v-66.56h6.075V279.7l33.086-34.895h8.013l-27.916,29.338"/></g></svg>