<svg xmlns="http://www.w3.org/2000/svg" xmlns:xlink="http://www.w3.org/1999/xlink" viewBox="0 0 425 425"><defs><style>.cls-1{fill:none;}.cls-2{clip-path:url(#clip-path);}.cls-3,.cls-4{fill:#fff;}.cls-4,.cls-5{fill-rule:evenodd;}.cls-5{fill:#db0011;}</style><clipPath id="clip-path"><rect class="cls-1" x="-445.292" y="-0.292" width="425.584" height="425.584"/></clipPath></defs><g id="Handelsbanken"><g class="cls-2"><g id="g3"><path id="path7" class="cls-3" d="M20.763,296.838c0,21.426,4.762,26.191,10.543,28.229v7.14H-20.046c-2.721-8.5-3.4-11.222-4.423-21.423C-35.351,322-50.653,336.969-82.961,336.969c-27.206,0-55.092-15.3-55.092-52.712,0-35.365,22.444-53.393,52.711-57.813l42.848-6.463c7.482-1.019,16.663-4.079,16.663-14.283,0-20.063-19.044-21.082-31.285-21.082-23.807,0-27.886,14.622-29.248,25.165h-45.908c5.441-55.432,43.87-63.254,80.94-63.254,25.505,0,72.1,7.822,72.1,52.371v97.94Zm-46.59-52.711c-4.762,3.74-12.582,6.8-32.309,9.861-17.685,3.063-32.308,7.485-32.308,27.209,0,16.661,12.924,21.765,22.108,21.765,21.083,0,42.509-13.6,42.509-35.7Z"/></g></g></g><g id="HSBC"><rect class="cls-3" x="-5.008" y="-5.008" width="435.015" height="435.015"/><path class="cls-4" d="M122.622,122.411H302.588V302.377H122.622Z"/><path class="cls-5" d="M392.572,212.605l-89.984-90.194V302.589Zm-179.966,0,89.982-90.194H122.622Zm-180.178,0,90.194,89.984V122.411Zm180.178,0-89.984,89.984H302.588Z"/></g></svg>