<svg id="FirstDirect" xmlns="http://www.w3.org/2000/svg" viewBox="0 0 425 425"><defs><style>.cls-1{fill:#fff;}</style></defs><rect x="-5.408" y="-5.408" width="435.817" height="435.817"/><path class="cls-1" d="M168.637,152.963h12.917V126.589c-5.491-.27-12.467-.09-18.228-.09-31.6,0-41.813,17.418-41.813,36.1v11.027H104.14v24.259h17.373v93.976H157.88V197.881h22.368V173.622H158.87v-8.957c0-8.146,4.726-11.7,9.767-11.7"/><path class="cls-1" d="M221.259,231.858c0-30.719,15.246-36.583,26.569-36.583,18.675,0,27.02,14.661,27.02,36.358,0,21.426-7.128,38.116-27.02,38.116-17.277,0-26.569-15.743-26.569-37.891m53.769,47.815.677,12.5h33.064V126.44h-34.6l-.226,58.055c-7.623-11.774-20.389-15.337-34.417-15.337-35.095,0-52.822,29.726-52.822,61.8,0,32.974,17.547,64.234,53.5,64.234,15.2,0,27.2-2.616,34.824-15.517"/></svg>