<svg xmlns="http://www.w3.org/2000/svg" viewBox="0 0 425 425"><defs><style>.cls-1{fill:#004481;}.cls-2{fill:#fff;}</style></defs><g id="BBVA"><rect class="cls-1" x="-5.408" y="-5.408" width="435.817" height="435.817"/><path class="cls-2" d="M196.192,215.921l-.784-.262c6.4-3.21,10.39-10.129,10.39-18.665,0-14.527-11.341-24.4-27.343-24.4H132.494a1.781,1.781,0,0,0-1.783,1.784v89.781a1.781,1.781,0,0,0,1.783,1.784h43.963c21.994,0,33.6-9.464,33.6-28.01C210.054,227.381,204.7,219.25,196.192,215.921Zm-48.267-29.84H175.2c9.82,0,15.17,2.806,15.17,10.723,0,9.035-5.088,13.553-15.17,13.72H147.925a1.781,1.781,0,0,1-1.783-1.784v-20.9A1.791,1.791,0,0,1,147.925,186.081ZM175.554,252.4H147.9a1.781,1.781,0,0,1-1.783-1.784v-24.8a1.781,1.781,0,0,1,1.783-1.783h27.914c13.173.166,18.808,3.875,18.808,14.314C194.623,247.4,188.869,252.4,175.554,252.4Z"/><path class="cls-2" d="M293.178,173.527,262.506,231.9a1.775,1.775,0,0,1-3.138,0l-30.7-58.372a1.75,1.75,0,0,0-1.57-.951H212.265a1.337,1.337,0,0,0-1.165,1.973l48.315,90.424a1.776,1.776,0,0,0,3.139,0l48.315-90.424a1.342,1.342,0,0,0-1.166-1.973H294.772A1.8,1.8,0,0,0,293.178,173.527Z"/><path class="cls-2" d="M99.658,215.921l-.785-.262c6.4-3.21,10.391-10.129,10.391-18.665,0-14.527-11.342-24.4-27.344-24.4H35.959a1.782,1.782,0,0,0-1.783,1.784v89.781a1.782,1.782,0,0,0,1.783,1.784H79.923c21.994,0,33.6-9.464,33.6-28.01C113.52,227.381,108.194,219.25,99.658,215.921Zm-48.244-29.84H78.687c9.819,0,15.169,2.806,15.169,10.723,0,9.035-5.088,13.553-15.169,13.72H51.414a1.782,1.782,0,0,1-1.783-1.784v-20.9A1.76,1.76,0,0,1,51.414,186.081ZM79.043,252.4H51.391a1.782,1.782,0,0,1-1.784-1.784v-24.8a1.781,1.781,0,0,1,1.784-1.783H79.305c13.172.166,18.807,3.875,18.807,14.314C98.112,247.4,92.335,252.4,79.043,252.4Z"/><path class="cls-2" d="M308.586,251.444l30.672-58.373a1.776,1.776,0,0,1,3.139,0l30.7,58.373a1.749,1.749,0,0,0,1.569.951H389.5a1.337,1.337,0,0,0,1.165-1.974L342.349,160a1.774,1.774,0,0,0-3.138,0L290.9,250.421a1.342,1.342,0,0,0,1.165,1.974h14.932A1.8,1.8,0,0,0,308.586,251.444Z"/></g></svg>