<svg xmlns="http://www.w3.org/2000/svg" viewBox="0 0 425 425"><defs><style>.cls-1{fill:#42145f;}.cls-2{fill:none;}.cls-3{fill:#e40420;}.cls-4{fill:#d10917;}</style></defs><g id="NatWest"><rect class="cls-1" x="-5.408" y="-5.408" width="435.817" height="435.817"/><path class="cls-2" d="M259.754,266.535l38.976,67.1L337.4,266.341l-38.786-66.912Z"/><path class="cls-2" d="M231.977,314.629h77.746l38.667-66.616L309.723,180.6l-38.975,67.413H192.87Z"/><path class="cls-3" d="M192.87,248.013l39.107,66.616h77.746l-38.975-66.617Z"/><path class="cls-4" d="M309.723,180.6l38.667,67.413-38.667,66.616-38.975-66.617Z"/><path class="cls-3" d="M135.084,146.543h77.549L251.4,79.669H173.638Z"/><path class="cls-4" d="M251.4,79.669l38.765,66.874L251.4,213.7l-38.764-67.158Z"/><path class="cls-3" d="M115.216,180.6,76.789,248.013h77.538L192.87,180.6Z"/><path class="cls-4" d="M76.789,248.013l38.427,66.616H192.87l-38.543-66.617Z"/></g></svg>