<svg xmlns="http://www.w3.org/2000/svg" xmlns:xlink="http://www.w3.org/1999/xlink" viewBox="0 0 425 425"><defs><style>.cls-1{fill:none;}.cls-2{fill:#0173b1;}.cls-3{clip-path:url(#clip-path);}.cls-4{fill:#fff;}</style><clipPath id="clip-path"><rect class="cls-1" x="-0.292" y="-0.292" width="425.584" height="425.584"/></clipPath></defs><g id="Handelsbanken"><rect class="cls-2" x="-5.008" y="-5.008" width="435.015" height="435.015"/><g class="cls-3"><g id="g3"><path id="path5" class="cls-4" d="M134.111,222.7V332.207H83.1V88.031h51.01v92.5h95.222v-92.5h51.013V332.207H229.333V222.7Z"/><path id="path7" class="cls-4" d="M465.763,296.838c0,21.426,4.762,26.191,10.543,28.229v7.14H424.954c-2.721-8.5-3.4-11.222-4.423-21.423-10.882,11.22-26.184,26.185-58.492,26.185-27.206,0-55.092-15.3-55.092-52.712,0-35.365,22.444-53.393,52.711-57.813l42.848-6.463c7.482-1.019,16.663-4.079,16.663-14.283,0-20.063-19.044-21.082-31.285-21.082-23.807,0-27.886,14.622-29.248,25.165H312.728c5.441-55.432,43.87-63.254,80.94-63.254,25.5,0,72.095,7.822,72.095,52.371v97.94Zm-46.59-52.711c-4.762,3.74-12.582,6.8-32.309,9.861-17.685,3.063-32.308,7.485-32.308,27.209,0,16.661,12.924,21.765,22.108,21.765,21.083,0,42.509-13.6,42.509-35.7Z"/></g></g></g></svg>