<svg xmlns="http://www.w3.org/2000/svg" viewBox="0 0 425 425"><defs><style>.cls-1{fill:#00284c;}.cls-2{fill:#fff;}</style></defs><g id="MBNA"><rect class="cls-1" x="-5.408" y="-5.408" width="435.817" height="435.817"/><path class="cls-2" d="M43.069,185.147h17.47v2.619a32.96,32.96,0,0,1,19.373-2.685,31.331,31.331,0,0,1,17.324,8.881c.136-.118.259-.213.37-.32a31.03,31.03,0,0,1,16.894-8.525,32.067,32.067,0,0,1,20.817,3.286c8.006,4.266,12.957,10.961,15.225,19.685a30.491,30.491,0,0,1,.921,7.705q.012,21.428.019,42.856v.661c-.516.148-16.357.187-17.361.041v-.774q0-19.466-.013-38.929c0-1.963.024-3.929-.066-5.888a13.48,13.48,0,0,0-3.834-8.806,13.211,13.211,0,0,0-11.214-4.338A14.075,14.075,0,0,0,106.236,212.3,17.267,17.267,0,0,0,106,215.26q-.022,21.632-.01,43.262v.857H88.63v-.809q0-21.767.005-43.533a14.377,14.377,0,0,0-1.4-6.422,13.549,13.549,0,0,0-10.695-7.9A14.089,14.089,0,0,0,60.9,211.657a17.623,17.623,0,0,0-.351,3.627c-.033,7.606-.023,15.211-.024,22.816q0,10.224,0,20.446v.886c-.329,0-.593,0-.856,0q-7.963,0-15.926.008c-.223,0-.447.029-.671.045Z"/><path class="cls-2" d="M187.958,261.658c-10.6-1.257-19.4-5.822-26.019-14.293a37.759,37.759,0,0,1-7.176-15.957,42.533,42.533,0,0,1-.8-8.537q0-29.543,0-59.083c0-.226,0-.451.006-.677.134-.012.269-.033.4-.033q8.454,0,16.909.008c.006.271.019.541.019.811q0,14.589,0,29.178v.872c.24-.2.405-.332.559-.474a34.255,34.255,0,0,1,10.929-6.9,27.309,27.309,0,0,1,11.352-1.753,38.991,38.991,0,0,1,36.118,31.012,36.345,36.345,0,0,1,.625,10.235,38.754,38.754,0,0,1-20.565,31.336,37.315,37.315,0,0,1-13.021,4.135c-.269.033-.536.072-.8.109l-3.251.27h-2.033Zm25.563-38.482a24.532,24.532,0,0,0-.769-6.035,21.926,21.926,0,0,0-7.726-12.1,20.356,20.356,0,0,0-16.262-4.07,19.1,19.1,0,0,0-14.42,10,24.03,24.03,0,0,0-2.684,15.9,23.492,23.492,0,0,0,6.977,13.454,19.5,19.5,0,0,0,25.574,1.615C210.371,237.225,213.263,230.837,213.521,223.176Z"/><path class="cls-2" d="M381.931,222.375c-.01.18-.028.359-.028.539q0,17.79.006,35.581v.83c-.265.016-.462.039-.659.039q-7.278,0-14.557,0c-.2,0-.4-.028-.606-.044v-8.791c-.24.247-.394.394-.536.552a33.264,33.264,0,0,1-11.382,8.453,25.067,25.067,0,0,1-8.764,2.132,36.978,36.978,0,0,1-21.465-5.4,38.381,38.381,0,0,1-17.17-21.454,36.848,36.848,0,0,1-1.74-9.619A38.763,38.763,0,0,1,334.6,185.722a39.121,39.121,0,0,1,33.354,7.269A36.771,36.771,0,0,1,380.133,211,37.476,37.476,0,0,1,381.931,222.375Zm-17.279,1.114a25.484,25.484,0,0,0-.49-4.73,23.447,23.447,0,0,0-8.593-14.078,18.886,18.886,0,0,0-14.629-3.929,19.813,19.813,0,0,0-11.515,5.82,23.889,23.889,0,0,0-5.314,25.6,21.153,21.153,0,0,0,9.194,10.923,20.681,20.681,0,0,0,14.783,2.308,19.082,19.082,0,0,0,12.749-8.529A24.343,24.343,0,0,0,364.652,223.489Z"/><path class="cls-2" d="M302.518,259.386h-17.35v-.774l0-39.262a27.436,27.436,0,0,0-.278-4.721A17.125,17.125,0,0,0,271.85,201.01c-6.331-1.318-11.891.247-16.39,4.948a16.481,16.481,0,0,0-4.651,11.785q0,15.773-.015,31.545,0,4.671,0,9.341v.763H233.5V185.259c.488-.135,16.066-.192,17.311-.054v3.335c.233-.091.379-.137.516-.2a37.1,37.1,0,0,1,11.512-3.357,38.449,38.449,0,0,1,19.478,2.357,31.028,31.028,0,0,1,17.1,15.954,31.8,31.8,0,0,1,2.957,11.527c.1,1.507.151,3.02.152,4.53q.014,19.665,0,39.329Z"/></g></svg>