<svg xmlns="http://www.w3.org/2000/svg" viewBox="0 0 425 425"><defs><style>.cls-1{fill:#fff;}.cls-2{fill:#009ee3;}.cls-2,.cls-3,.cls-4{fill-rule:evenodd;}.cls-3{fill:#113984;}.cls-4{fill:#172c70;}</style></defs><g id="Paypal"><rect class="cls-1" x="-5.408" y="-5.408" width="435.817" height="435.817"/><path class="cls-2" d="M193.44,130.091h87.84c47.162,0,64.916,23.875,62.173,58.953-4.535,57.909-39.544,89.948-85.981,89.948H234.027c-6.372,0-10.657,4.217-12.38,15.645l-9.954,66.436c-.658,4.308-2.925,6.8-6.326,7.142H150.178c-5.193,0-7.029-3.968-5.669-12.561l33.649-212.979C179.473,134.149,184.144,130.091,193.44,130.091Z"/><path class="cls-3" d="M138.5,56.785h87.931c24.76,0,54.146.793,73.782,18.139,13.128,11.587,20.021,30.021,18.434,49.883-5.4,67.139-45.552,104.755-99.426,104.755H175.867c-7.391,0-12.266,4.9-14.352,18.14l-12.108,77.092c-.794,4.988-2.948,7.936-6.8,8.3H88.345c-6.009,0-8.14-4.535-6.575-14.557l39-247.1C122.334,61.5,127.8,56.785,138.5,56.785Z"/><path class="cls-4" d="M162.784,239.879l15.351-97.2c1.338-8.526,6.009-12.607,15.305-12.607h87.84c14.534,0,26.3,2.267,35.508,6.462-8.82,59.769-47.48,92.964-98.089,92.964H175.414C169.609,229.517,165.347,232.419,162.784,239.879Z"/></g></svg>