<svg xmlns="http://www.w3.org/2000/svg" viewBox="0 0 425 425"><defs><style>.cls-1{fill:#fff;}.cls-2{fill:#1e357a;}</style></defs><g id="BankOfScotland"><rect class="cls-1" x="-5.408" y="-5.408" width="435.817" height="435.817"/><g id="g11"><path id="path593" class="cls-2" d="M240.188,126.97A28.731,28.731,0,1,0,211.457,155.7a28.7,28.7,0,0,0,28.731-28.731"/><path id="path605" class="cls-2" d="M240.188,298.03a28.731,28.731,0,1,0-28.731,28.744,28.7,28.7,0,0,0,28.731-28.744"/><path id="path617" class="cls-2" d="M101.9,212.774a28.732,28.732,0,1,0-28.732,28.744A28.7,28.7,0,0,0,101.9,212.774"/><path id="path629" class="cls-2" d="M380.563,212.768a28.732,28.732,0,1,0-28.731,28.744,28.7,28.7,0,0,0,28.731-28.744"/><path id="path641" class="cls-2" d="M341.331,161.655V107.818L212.1,185.987l-.7.412L81.59,107.766V161.59l85.329,51.2L81.59,263.91v53.863L211.416,239.23l129.915,78.543V263.91L255.938,212.8Z"/></g></g></svg>