<svg xmlns="http://www.w3.org/2000/svg" xmlns:xlink="http://www.w3.org/1999/xlink" viewBox="0 0 425 425"><defs><style>.cls-1{fill:#fff;}.cls-2{fill:url(#radial-gradient);}</style><radialGradient id="radial-gradient" cx="-1476.572" cy="1.99" r="2.526" gradientTransform="matrix(138.071, 0, 0, -138.071, 203936.132, 376.09)" gradientUnits="userSpaceOnUse"><stop offset="0" stop-color="#20c4f4"/><stop offset="0.305" stop-color="#09b4f0"/><stop offset="0.5" stop-color="#00aeef"/><stop offset="0.8" stop-color="#0092c8"/><stop offset="1" stop-color="#006e98"/></radialGradient></defs><g id="Barclays"><rect class="cls-1" x="-5.408" y="-5.408" width="435.817" height="435.817"/><path class="cls-2" d="M360.465,114.951a48.184,48.184,0,0,0-17.553-21.68,65.749,65.749,0,0,0-14.455-8.261,52.362,52.362,0,0,0-13.424-2.067H314c-6.194,0-17.552,1.031-23.746,10.328-3.1,3.1-4.128,9.291-3.1,14.455,1.031,4.127,4.128,8.261,8.261,9.291a4.521,4.521,0,0,0,3.1,1.031,10.44,10.44,0,0,1-1.03,3.1c-3.1,3.1-8.261,8.261-23.747,8.261h-1.03c-8.261-1.031-14.455-3.1-23.747-12.389-5.164-6.194-8.261-17.552-8.261-35.1,0-9.292-1.03-16.522-3.1-22.716-1.03-4.128-5.164-8.261-8.261-10.328a47.558,47.558,0,0,0-10.327-5.163l-17.558-2.062c-6.194,0-10.327,1.031-12.388,4.128h-6.195c-3.1,0-7.224,1.031-10.327,1.031-6.194,1.03-10.327,4.127-14.455,7.225-1.031,1.03-5.164,5.163-6.194,9.291,0,3.1,1.03,6.194,1.03,7.225l1.031,1.031c2.066-2.067,6.194-3.1,11.358-3.1,7.225,0,17.552,3.1,19.619,8.261,5.163,8.261,3.1,14.455,3.1,21.68-3.1,19.619-10.328,28.91-25.813,30.972a25.719,25.719,0,0,1-8.261,1.03c-11.358,0-19.619-3.1-23.747-10.327v-2.067A3.211,3.211,0,0,0,132.28,117c4.128-2.067,7.225-5.164,8.261-9.292a17.924,17.924,0,0,0-3.1-14.455c-6.194-6.194-14.455-10.327-23.746-10.327a53.667,53.667,0,0,0-14.455,2.066c-12.389,3.1-23.747,13.425-32.008,29.941a111.786,111.786,0,0,0-11.358,43.36,288.779,288.779,0,0,0,0,42.33c1.031,20.649,5.164,33.038,10.328,46.457a208.371,208.371,0,0,0,18.583,37.166c2.066,3.1,3.1,6.194,5.163,8.26l1.031-1.03a14.257,14.257,0,0,0,3.1-4.128c4.128-3.1,11.358-13.424,13.425-16.522a78.354,78.354,0,0,0,7.225-13.424l1.03-2.067,2.067,1.031a11.726,11.726,0,0,1,3.1,8.261c0,3.1-1.031,6.194-3.1,12.388-2.067,7.225-6.2,15.486-10.328,23.747,1.031,1.031,1.031,3.1,0,3.1-3.1,5.164-3.1,7.225-3.1,9.292h1.031a14.734,14.734,0,0,0,8.261-4.128c3.1-2.067,11.358-9.292,21.68-23.747,8.26-10.327,13.424-21.68,19.618-34.068l1.031-2.067,2.067,1.031c1.03,1.03,2.066,1.03,3.1,2.066,1.03,2.067,1.03,5.164,1.03,8.261-1.03,8.261-6.194,19.619-9.291,27.874-6.194,14.456-17.552,29.941-25.813,41.3,0,1.031-2.067,3.1-3.1,3.1a14.255,14.255,0,0,0,4.127,3.1l3.1,3.1a209.217,209.217,0,0,0,35.1,23.746c10.327,6.195,30.972,16.522,45.432,20.65,14.455-3.1,35.1-14.455,45.432-20.65a209.217,209.217,0,0,0,35.1-23.746l3.1-3.1c2.066-1.031,3.1-3.1,4.127-3.1a7.812,7.812,0,0,0,1.031-4.127l-1.031-1.031c-8.26-10.327-19.618-26.844-25.813-41.3-3.1-8.261-8.261-19.619-9.291-27.874-1.031-3.1,0-6.194,1.03-8.261l2.067-2.067a5.1,5.1,0,0,1,3.1-1.03l1.031,2.066c6.194,12.389,12.388,23.747,19.619,34.069,10.327,14.455,18.582,21.68,21.68,23.747,3.1,3.1,6.194,4.127,8.26,4.127h1.031c1.031-1.03,0-3.1-3.1-8.261a3.8,3.8,0,0,1-1.031-3.1c-4.127-8.261-8.261-16.521-10.327-23.746q-3.1-9.293-3.1-12.389a11.721,11.721,0,0,1,3.1-8.261l2.066-1.03,1.031,2.066c2.067,5.164,6.194,11.358,8.261,14.455s10.327,12.389,12.388,15.486c2.067,2.067,3.1,3.1,3.1,4.128l1.03,1.031c1.031-1.031,2.067-3.1,4.128-7.225l1.031-1.031c6.194-10.327,12.388-23.747,17.552-37.166,5.164-12.388,8.261-25.813,10.327-46.457,1.031-12.388,2.067-25.813,0-42.329,1.031-15.486-3.1-30.972-8.261-42.33Z"/></g></svg>