<svg xmlns="http://www.w3.org/2000/svg" viewBox="0 0 425 425"><defs><style>.cls-1{fill:#0d61b6;}.cls-2{fill:#fff;}</style></defs><g id="Halifax"><rect class="cls-1" x="-5.008" y="-5.008" width="435.015" height="435.015"/><path class="cls-2" d="M21.545,335.091c1.626-1.59,3.24-3.193,4.881-4.768q8.411-8.073,16.835-16.13l27.976-26.8q13.1-12.543,26.174-25.1a3.252,3.252,0,0,1,2.49-.965q48.7.03,97.4.015,16.311,0,32.624-.032h1.451c-.322.382-.482.59-.661.779q-10.266,10.792-20.536,21.582-15.705,16.507-31.408,33.016-8.479,8.916-16.943,17.848a2.532,2.532,0,0,1-2.047.848q-68.487-.029-136.976-.018c-.392,0-.784-.018-1.176-.028Z"/><path class="cls-2" d="M230.817,163.607c-.471.012-.941.035-1.412.036q-64.728,0-129.456.024a3.377,3.377,0,0,1-2.572-1.048q-13.742-13.236-27.538-26.413L30.378,98.4q-4.125-3.951-8.256-7.895c-.25-.239-.507-.471-.859-.8.347-.028.633-.057.92-.073.2-.01.392,0,.589,0q68.439,0,136.877-.02a2.907,2.907,0,0,1,2.344.987q17.789,18.754,35.629,37.462,11.446,12.029,22.887,24.064,5.271,5.549,10.517,11.122Z"/><path class="cls-2" d="M403.5,335.336c-.431.01-.863.028-1.294.028q-68.37,0-136.74.02a2.816,2.816,0,0,1-2.252-.927q-11.844-12.3-23.745-24.543-8.97-9.264-17.93-18.536c-.325-.336-.638-.682-1.014-1.084,1.218-1.294,2.391-2.55,3.575-3.795q8.686-9.126,17.378-18.248c1.894-1.99,3.8-3.966,5.658-5.993a2.6,2.6,0,0,1,2.131-.936c5.614.041,11.228.02,16.842.02q29.622,0,59.242-.022a3.117,3.117,0,0,1,2.368.976q15.23,14.656,30.506,29.264,11.221,10.753,22.449,21.5,11.139,10.671,22.274,21.345c.225.216.427.456.639.685Z"/><path class="cls-2" d="M403.737,89.637c-.911.942-1.665,1.773-2.472,2.548q-11.089,10.638-22.194,21.261L339.868,151c-4.139,3.964-8.289,7.916-12.411,11.9a2.454,2.454,0,0,1-1.857.763q-38.223-.029-76.444,0a2.289,2.289,0,0,1-1.838-.775q-12.8-13.5-25.643-26.965c-.373-.392-.723-.807-1.137-1.27.72-.76,1.383-1.473,2.06-2.172q13.354-13.788,26.714-27.574,6.964-7.19,13.915-14.393a2.561,2.561,0,0,1,2.03-.893q68.611.036,137.222.021Z"/><path class="cls-2" d="M318.462,234.858h-23.72l-4.018,12.624H273.769q11.938-35.133,23.8-70.048h18.07l22.879,67.4,21.214-32.354-22.952-35.022c.459-.033.752-.072,1.045-.073,5.536,0,11.072.015,16.607-.022a1.616,1.616,0,0,1,1.587.9q5.929,9.551,11.925,19.059c.224.357.462.7.761,1.158.3-.432.521-.739.723-1.062,3.937-6.285,7.886-12.562,11.786-18.869a2.1,2.1,0,0,1,2.052-1.159c5.338.041,10.678,0,16.017,0,.377,0,.754.036,1.364.067L377.7,212.48l22.926,34.986H381.912c-4.349-6.941-8.719-13.919-13.171-21.025-.276.41-.5.719-.7,1.039-3.98,6.35-7.97,12.694-11.918,19.064a1.81,1.81,0,0,1-1.76,1.015q-15.37-.043-30.741-.019H322.5Zm-11.739-37.132-.236-.034c-2.437,7.7-4.873,15.408-7.33,23.178h14.888C311.586,213.1,309.154,205.411,306.723,197.726Z"/><path class="cls-2" d="M79.45,247.5H63.078c-.073-1.234-.027-2.474-.035-3.71-.008-1.256,0-2.512,0-3.768v-19.01H39.1v26.448H22.918c-.226-.83-.3-68.241-.063-69.973H38.911a.333.333,0,0,1,.082.06.271.271,0,0,1,.041.109,2,2,0,0,1,.042.229,2.317,2.317,0,0,1,.007.236q.014,13.838.028,27.677a.326.326,0,0,0,.039.106c.823.261,21.2.377,23.871.119.044-4.752.014-9.523.02-14.294.005-4.739,0-9.479,0-14.28H79.45Z"/><path class="cls-2" d="M108.646,177.431h17.912c.556,1.323,23.754,69.1,23.659,70.067H133.512q-2-6.286-4.021-12.634H105.767q-1.993,6.271-4.013,12.621h-16.8a3.447,3.447,0,0,1,.06-.844Q96.815,212.045,108.646,177.431Zm16.43,43.446-7.346-23.22c-2.626,7.719-5.118,15.42-7.527,23.22Z"/><path class="cls-2" d="M247.838,220.889v26.576H231.529c-.246-.8-.31-68.6-.053-70.006h47.313v14.75h-30.9V206.09h25.551v14.8Z"/><path class="cls-2" d="M172.2,177.518v55.168h25.521v14.767H155.775V177.615A157.858,157.858,0,0,1,172.2,177.518Z"/><path class="cls-2" d="M221.983,247.5H205.545c-.248-.826-.315-68.647-.062-70.049h16.5Z"/></g></svg>