<svg xmlns="http://www.w3.org/2000/svg" viewBox="0 0 425 425"><defs><style>.cls-1{fill:#fff;}.cls-2{fill:#211e1e;}.cls-3{fill:#636161;}</style></defs><g id="Lloyds"><rect class="cls-1" x="-5.408" y="-5.408" width="435.817" height="435.817"/><g id="layer1"><g id="g12991"><path id="path12506" class="cls-2" d="M374.477,220.5c6.675,4.877,13.541,8.419,13.541,16.184,0,2.234-2.888,4.468-9.318,4.468-4.877,0-10.217-1.335-12.642-4.9-2.017-2.67.872-6.212-.9-8.882-1.335-2.207-4.441-1.117-6.43-2.207-2.452-1.335-2.67-2.452-4.223-5.776-1.772-4-7.765-10.681-14.877-17.765-5.994-5.994-12.424-9.1-15.312-8.882a33.726,33.726,0,0,1-4.686.218c-5.095,0-9.563,4.9-16.865,7.983-5.095,2.234-7.983,3.569-11.334,4l-1.09,1.335,6.648-.218c6.212,0,14.441-.9,20.626-.9,6.484,0,9.59,5.776,12.042,11.771,4.877,12.206,12.206,29.779,20.843,44.41,4.223,6.894,7.793,11.335,7.793,19.808,0,2.67-.246,6.212-3.787,6.212-4.877,0-17.3-5.1-17.3-10.68,0-4.223,3.324-6.021,3.324-10.217,0-2.67-4.006-2.234-4.878-4.659-3.133-13.106-6.893-25.993-14.249-33.758-3.787-4.005-4.223-5.776-7.983-5.776a16.38,16.38,0,0,0-5.776,1.117c-10.217,3.76-23.759,15.094-40.624,20.216-6.43,1.989-7.547-1.771-14.195-.436h.437c-5.34,1.09-9.564,4.2-16.893,6.212-10.217,2.861-27.763,4.2-41.741,2.425-9.972-1.335-22.886-3.324-28.445-3.106-4.2,12.207-13.3,28.2-26.619,34.439-7.111,3.106-9.318,7.547-7.111,15.53,2.67,9.972,11.552,17.329,16.212,25.748,4.223,7.3,11.089,18.881,18.418,22.669,7.329,3.76,11.8,9.29,11.8,13.95,0,2.234-.927,3.569-3.133,3.569H161.088a3.976,3.976,0,0,1-3.76-2.234c-2.016-3.76-.682-7.329-3.324-10.654-2.016-2.424-3.57-1.771-6-3.76-4.468-4.223-1.117-6.648-4.468-12.015-9.318-14.631-13.3-18.173-21.061-28.636-4.441-5.531-9.781-8.2-9.781-15.5,0-8.882,8.882-10.435,8.664-19.344A46.524,46.524,0,0,1,98.7,281.364c-1.335.218-4.9,2.888-6.43,4.659-3.57,3.542-4.905,7.111-5.341,12.424-1.089,11.989-3.542,24.195-1.989,36.156,1.989,7.792,3.324,10.462,9.755,14.685,4,2.643,8.664,6.43,9.1,11.961,0,1.553-.435,3.352-2.643,3.352H85.371a3.96,3.96,0,0,1-3.324-2.016c-1.8-3.107-.682-5.313-1.334-8.883-1.554-7.3-9.782-6.866-9.782-14.386,0-2.261,1.335-5.149,1.552-9.808.463-10.19,3.57-26.647.463-46.591C71.612,271.338,83.6,270.9,89.812,260.684c3.76-5.776,2.67-3.324,4.877-7.547,2.234-4.441,1.8-7.547,1.579-10.217,0-3.324-3.351-10.462-1.117-24.875.872-6.458,3.978-12.888,8.2-18.419,0-.218,0-1.117-1.334-1.117-6.212.436-6.212-1.117-10.435-1.117a9.214,9.214,0,0,0-7.766,5.095,5.154,5.154,0,0,1-2.888-4.414,8.211,8.211,0,0,1,2.671-6.457c.871-.872,0-1.308-1.118-1.308-4.876,0-9.536,5.967-10.653,10.19-2.888-.436-3.106-4.223-4.441-4.223s-2.207,2.016-2.207,4c0,14.222,23.078,17.328,23.078,35.965,0,21.551-25.965,17.11-25.965,24.875,0,1.581,1.089,2.888,3.106,3.788-.9,1.988-3.106,2.86-5.558,2.86a9.67,9.67,0,0,1-10-9.972c0-11.77,15.776-11.988,15.776-20.9,0-4.2-2.67-5.559-5.095-7.547-15.1-10.654-23.541-21.307-23.541-38.826,0-18.881,13.106-33.322,30.189-33.322,24.848,0,25.529,28.663,48.2,31.088a50.562,50.562,0,0,1,28.172-9.1c14.659,0,21.089,3.787,36.646,3.787,6.239,0,16.675-1.771,29.1-10.217,4.659-3.106,6.648-3.76,10.871-7.575,9.754-8.446,18.882-24.848,18.882-36.618v.654c0-3.76-.9-6-2.67-6-5.341,0-10,4.905-15.312,10-3.352,3.542,1.771,5.095-5.777,9.318-2.67,1.335-5.776-1.117-8.664-1.117-5.994,0-8.664-7.084-8.664-13.3,0-3.134,2.452-4.005,3.787-6.893,3.106-5.995,2.888-8.229,5.776-14.223,1.772-3.978,4.877-6.648,4.659-9.536,0-1.09-.9-1.771-.9-2.888,0-6.021,8.01-10,8.01-15.993,0-3.325-3.787-4.878-4.686-7.548-.872-2.67-.218-3.324-.218-3.324a1.217,1.217,0,0,1,1.117-.681c3.106,0,4.442,3.324,7.33,5.095.217-3.978-1.117-4.877-1.117-7.765,0-1.553-.218-3.978,1.334-3.978,2.016,0,1.772,2.67,3.57,3.978,2.206,1.771,4.195,1.553,6.648,3.106,3.106,2.016,4.877,5.34,5.994,5.558,3.106.436,3.978-3.324,2.425-5.558,3.569-.218,7.111,2.67,11.8,2.67,7.329,0,9.782,1.989,11.117,3.106,4.659,4,5.53,7.112,10.626,7.112,2.67,0,4-2.235,4.686-3.107,3.542,2.643,3.76,9.319,0,14.85,1.552,4.713,8.2,5.149,11.307,7.356,3.106,2.234,2.67,3.351,4.877,4.686a4.037,4.037,0,0,0,4.659,0c1.58,6.212-3.76,11.743-10.19,12.642.217,7.983,8.664,12.86,12.424,14.877-2.234,4.877-6.212,6.43-9.781,7.3,1.117,4.9,6.457,12.015,3.787,18.445-2.452-1.117-6,0-6,3.542,0,4,5.1,6.021-.217,8.91-2.452,1.335-2.888,4.877,1.552,8.228,5.776-1.58,11.307-1.335,17.737-1.335,4,0,9.346-1.117,12.888-1.117,6.7,0,10.68,2.67,15.557,7.983,12.234,13.323,23.323,27.3,35.965,36.864"/><path id="path12508" class="cls-3" d="M44.964,184.968c2.67,0,7.547-14.658,17.546-14.658,2.888,0,3.542,1.117,3.542,2.234,0,1.989-3.324,3.76-3.324,6.43a1.044,1.044,0,0,0,1.117,1.117c2.425,0,4.223-5.34,14.2-5.34a26.006,26.006,0,0,1,7.33.9c1.117.218,3.324,1.335,2.452-1.771-2.452-6.893-10-13.35-20.653-13.35s-21.742,9.59-23.077,21.115c-.246,1.989-.246,3.324.872,3.324"/><path id="path12510" class="cls-3" d="M229.255,93.476c-2.888-1.117-3.324-2.67-2.424-6.212.654-3.787.871-5.34-.9-5.776-1.552-.463-3.569.436-5.558,2.643-1.772,2.452-4.659,5.34-5.531,7.765-.9,3.16,2.861,2.7.218,7.82-4.66,8.419-5.777,10.189-8.011,16.184-1.989,6.212-3.542,7.111-4.631,9.1-1.363,1.8,1.771,2.016,5.313.9,3.787-1.335,4,3.106,2.67,6.212-1.118,2.234-.246,3.106,2.888.681,2.861-2.234-1.553-4-.435-11.116,1.089-6.43,2.425-10,6.43-16.4,3.324-5.558,6.212-9.564,11.988-7.575,2.207,1.117,1.089-2.888-2.016-4.223"/><path id="path12512" class="cls-3" d="M352.734,282.046c1.117,0,1.307-1.581,1.307-2.916,0-3.106-1.772-7.792-4.2-9.781-.654,4.659-2.888,7.765-2.888,9.781,0,1.581,4.223,2.916,5.776,2.916"/><path id="path12514" class="cls-3" d="M380.252,237.362c1.772,0,4.442-.681,4.442-2.016,0-2.643-4.006-7.329-7.547-8.419,2.452,4.659,0,10.435,3.106,10.435"/><path id="path12516" class="cls-3" d="M258.354,176.767c25.094,11.525,23.54,32.614,25.775,27.273.872-2.207,4.2-12.642-4.686-22.614-6.867-8.01-9.536-5.994-6.867-12.669,10.872-26.429,17.765-66.4-14.876-80.4-3.76-1.553-6.92-1.553-6.92-.872,0,.654,3.6,1.771,7.819,4.659,21.742,14.44,15.067,53.729-4.9,72.829-6.675,6.457-3.569,8.01,4.659,11.8"/><path id="path12518" class="cls-3" d="M172.638,360.814c1.772,0,.872-2.67.218-3.787-1.554-2.643-4.441-4.414-6.894-5.531.683,2.67.9,9.318,3.57,9.318Z"/><path id="path12520" class="cls-3" d="M96.922,360.814c1.771,0,.435-2.67-.218-3.787-1.554-2.643-4.686-4.2-7.111-5.313.654,2.67,1.117,9.1,3.76,9.1Z"/><path id="path12522" class="cls-3" d="M188.631,210.5c13.76-1.553,15.994-4.659,18.419-15.095,1.117-4.877,4.686-10,7.792-13.323,1.989-2.207,3.978-4.005,5.967-7.329.682-1.335,1.117-2.452,0-1.989-1.526,1.117-6.212,4.223-8.2,5.776-9.754,6.866-24.657,10.19-30.624,10.19-12.67,0-23.568-3.76-35.093-3.76-34.63,0-47.544,27.083-45.746,42.831.217,2.452.654,2.67,1.552,2.67,2.425,0,4.441-9.318,13.106-17.519,12.642-11.989,26.428-18.882,45.964-18.882,14.195,0,20,4.659,20,6.43,0,3.542-6.021,3.788-5.585,7.329,0,1.118,3.351,3.788,12.451,2.671"/></g></g></g></svg>