<svg xmlns="http://www.w3.org/2000/svg" viewBox="0 0 425 425"><defs><style>.cls-1{fill:#fff;}.cls-2{fill-rule:evenodd;}</style></defs><g id="Revolut"><rect class="cls-1" x="-5.408" y="-5.408" width="435.817" height="435.817"/><path class="cls-2" d="M205.129,123.29c-3.834,26.9-6.864,49.537-12.368,84.726,14.842-.309,48.609,5.628,56.03-42.548,6.061-40.075-21.336-43.786-43.662-42.178Z"/><path class="cls-2" d="M333.765,317.047c5.813,12.864,0,29.129-12.121,35.684a98.544,98.544,0,0,1-22.7,9.153,190.931,190.931,0,0,1-39.766,5.195c-21.46,0-42.858-12.245-52.134-27.149-2.35,5.133-11.071,15.461-26.16,20.408-9.524,3.092-21.089,6.8-45.085,6.8-21.583-.062-33.89-9.833-40.322-18-10.39-13.111-11.874-29.623-9.9-40.755l.124-.556c8.1-40.817,19.171-114.968,24.366-152.137v-.371c1.423-10.39,2.845-20.656,3.711-31.045q.649-7.886.742-15.771c0-4.947-.433-9.895-.433-14.842a30.4,30.4,0,0,1,3.03-13.606,31.017,31.017,0,0,1,17.007-14.224c7.545-2.536,15.461-3.587,23.316-4.453,8.039-.866,16.079-1.731,24.119-2.412,9.895-.742,19.728-1.113,29.623-1.113,16.884,0,33.829.309,50.465,3.711C278.6,65.1,295.731,71.712,309.151,83.4a93.851,93.851,0,0,1,21.893,29.252c4.762,9.709,6.741,20.037,7.916,27.83a117.6,117.6,0,0,1-1.608,42.363,94.9,94.9,0,0,1-12.307,28.51,117.058,117.058,0,0,1-24.923,27.459c6.432,18.491,23.006,54.484,33.643,78.232ZM144.151,95.584a189.435,189.435,0,0,1,.124,20.532c-.247,6.988-.866,13.977-1.67,21.027-.742,6.927-1.67,13.791-2.659,20.718l-.248,2.226c-2.968,21.646-6.122,43.229-9.338,64.689-3.525,22.7-7.359,45.146-11.194,67.719-1.731,10.576-5.813,24-.309,34.014,4.886,8.968,17.44,10.081,26.16,9.153C176.867,332.385,182,325.273,182,325.273c-6.37-7.051-.866-39.148,5.5-82.253h22.7L233.887,314.7s6.988,22.2,26.469,21.151c24.861-1.423,43.105-7.05,45.827-10.2-7.607-4.268-29.562-59.123-41.56-99.322a149.418,149.418,0,0,0,16.7-11.688,90.1,90.1,0,0,0,19.048-20.594,61.029,61.029,0,0,0,8.164-18.739,79.721,79.721,0,0,0,1.608-10.885,82.313,82.313,0,0,0-.557-19.11c-.928-6.122-2.226-12.863-4.948-18.367-5.009-10.2-12.183-19.172-21.892-24.923-16.451-9.648-35.375-11.5-53.805-12.555a340.917,340.917,0,0,0-59.988,1.979c-2.35.31-24.923,2.35-24.8,4.144Z"/></g></svg>