<svg xmlns="http://www.w3.org/2000/svg" viewBox="0 0 425 425"><defs><style>.cls-1{fill:#fff;}.cls-2{fill:#00927b;}</style></defs><g id="TriodosBank"><rect class="cls-1" x="-5.408" y="-5.408" width="435.817" height="435.817"/><path id="path3602" class="cls-2" d="M360.33,218.335c0-41.9-17.849-82.421-41.554-106.448-15.1-15.1-28.832-24.37-49.105-33.316l-2.059,3.776a135.776,135.776,0,0,1,26.794,21.3c26.43,25.4,43.956,69.356,43.956,105.418,0,5.491,0,16.475-.686,24.37-3.089-15.446-12.721-31.922-26.108-45.33-3.776-3.775-9.267-9.61-13.386-11.67,0,7.9-3.089,26.108-6.865,36.748,5.148,4.119,7.894,7.209,12.7,11.671,10.984,11.327,18.192,25.764,18.192,37.778a28.279,28.279,0,0,1-8.581,19.564c-5.492,5.492-16.819,9.611-28.146,9.611-13.408,0-33.316-7.208-43.613-14.759,20.937-21.281,33.637-44.3,41.553-73.132a138.208,138.208,0,0,0,5.149-37.092c0-22.31-5.492-43.613-15.124-60.432C258,79.6,234.661,64.5,204.091,64.5c-36.4,0-70.386,17.848-95.808,43.613C79.108,137.63,64.67,173.692,64.67,210.784a135.481,135.481,0,0,0,1.373,19.908h4.14a158.6,158.6,0,0,1,4.806-33.981c5.835-23.019,21.624-48.419,41.532-68.348C130.959,113.947,152.24,99.874,167,94.039c-11.327,9.267-22.311,26.429-27.8,45.672-1.373,5.149-2.745,12.014-2.745,16.819,6.864-4.119,24.026-10.3,35.01-12.013,2.4-15.811,8.259-33.316,19.93-44.986,5.835-5.835,12.7-9.611,21.281-9.611,13.043,0,23.361,9.611,29.883,20.594,6.522,11.327,10.641,31.6,8.924,45.33a151.077,151.077,0,0,0-41.9-6.179,155.442,155.442,0,0,0-42.24,6.179c-24.027,6.521-46.016,18.878-61.805,34.667-16.819,16.84-29.862,40.181-29.862,64.229,0,25.057,12.7,46.016,29.519,63.178,28.167,28.146,68.327,42.583,107.821,42.583,31.943,0,60.432-11,86.2-29.883l-2.059-3.432C276.536,338.513,254.912,344,230.542,344c-36.749,0-71.781-11.327-98.9-31.921a82.365,82.365,0,0,0,24.37,4.119c12.014,0,34-3.433,44.643-9.954-7.551-4.462-21.281-15.467-28.51-24.049-10.3,4.119-23,7.209-34.324,7.209-10.641,0-22.333-2.4-29.884-10.3a28.471,28.471,0,0,1-7.208-18.535c0-14.416,7.895-26.451,17.5-36.4A87.039,87.039,0,0,1,141.6,207.008c7.9,29.176,21.281,52.538,42.24,73.475,26.087,25.765,60.089,40.181,89.951,40.181,22.675.343,41.9-6.178,58.029-22.311C349,280.827,360.33,249.935,360.33,218.335M247.017,194.308c-7.208,22.311-20.616,42.562-36.748,58.373-15.789-16.841-26.43-38.808-31.922-60.775a130.4,130.4,0,0,1,28.49-3.111,156.63,156.63,0,0,1,40.18,5.513"/></g></svg>