<svg xmlns="http://www.w3.org/2000/svg" viewBox="0 0 425 425"><defs><style>.cls-1{fill:#0a2f64;}.cls-2{fill:#fff;}</style></defs><g id="RoyalBankScotland"><rect class="cls-1" x="-5.408" y="-5.408" width="435.817" height="435.817"/><path class="cls-2" d="M326.817,208.068H283.063c-9.329,0-17.72-5.594-20.517-14.064-7.931-23.314-30.784-31.237-30.784-31.237a22.224,22.224,0,0,1-14.455-20.517v-44.3c0-12.126,9.79-21.448,21.916-21.448s21.916,8.861,21.916,21.448l-.469,34.972L311.5,82.564c8.392-8.391,22.385-8.391,31.237,0a22.527,22.527,0,0,1,0,31.238l-50.356,49.887h34.5A21.876,21.876,0,0,1,348.8,185.527q0,.039,0,.078c0,12.126-9.789,22.385-21.916,22.385m-.468,52.692-34.972-.469,50.825,50.825c8.391,8.392,8.391,22.385,0,31.237-8.392,8.392-22.385,8.392-31.238,0L261.139,292.31v34.5c0,13.048-9.79,21.916-21.916,21.916a21.877,21.877,0,0,1-21.916-21.838V283.059c0-9.329,6.063-17.72,14.064-20.517,23.314-7.931,31.237-30.784,31.237-30.784A22.224,22.224,0,0,1,283.125,217.3h43.754A21.877,21.877,0,0,1,348.8,239.141q0,.039,0,.078c0,12.126-9.329,21.447-22.384,21.447M185.46,348.409c-12.126,0-21.916-7.931-21.447-21.916l.469-34.972-50.825,50.825a22.528,22.528,0,0,1-31.237,0c-8.391-8.861-8.391-22.846,0-31.238l49.426-49.887h-33.5a21.653,21.653,0,0,1-21.916-21.916,21.878,21.878,0,0,1,21.838-21.916H142.1c9.329,0,17.721,5.594,20.518,14.064,7.93,23.314,30.315,31.237,30.315,31.237a22.224,22.224,0,0,1,14.454,20.517v43.754a21.5,21.5,0,0,1-21.916,21.448m7.931-185.58c-23.315,8.392-31.238,30.784-31.238,30.784a22.222,22.222,0,0,1-20.517,14.455H97.89A21.877,21.877,0,0,1,75.974,186.23v-.078c0-12.126,8.391-21.916,21.916-21.916l34.972.469L82.506,113.88a21.954,21.954,0,0,1,0-30.776c8.391-8.392,22.385-8.392,31.237,0l49.887,49.887v-34.5a21.916,21.916,0,0,1,43.832,0v43.754c0,9.329-5.594,18.181-14.063,20.517"/></g></svg>