<svg xmlns="http://www.w3.org/2000/svg" viewBox="0 0 425 425"><defs><style>.cls-1{fill:#fff;}.cls-2{fill:#03426a;}</style></defs><g id="DanskeBank"><rect class="cls-1" x="-5.008" y="-5.008" width="435.015" height="435.015"/><path class="cls-2" d="M-5.008,267.864H430.008V-5.008H-5.008Z"/><path class="cls-1" d="M97.072,203.836c0,10.954-5.878,16.365-19.037,16.365H57.328V179.188H77.367c15.9,0,19.7,7.748,19.7,16.231Zm8.483-.334v-7.014c0-22.377-17.634-23.245-29.457-23.245H48.778V226.28H78.436c23.312,0,27.119-12.625,27.119-22.778"/><path class="cls-1" d="M151.779,213.187c0,3.073-.267,5.878-3.808,7.147-2.07.8-5.009,1.069-9.952,1.069s-7.882-.468-9.619-1.6c-1.2-.735-1.67-1.937-1.67-4.476,0-3.206.8-5.009,2.338-5.744s3.473-.868,9.485-.868h13.226v4.475Zm8.015,13.092v-20.84a60.226,60.226,0,0,0-.333-8.684,7.089,7.089,0,0,0-2.739-4.809c-3.874-3.006-13.36-3.073-18.035-3.073-3.541,0-13.159.4-16.7,3.407a4.288,4.288,0,0,0-1.469,3.674c0,.935.133,2.2.2,3.874h7.816c.133-.935.334-3.206,1.2-4.141,1.069-1,2.872-1.4,8.216-1.4,6.145,0,10.42.2,12.224,1.2,1.67.935,1.6,2.939,1.6,4.475v3.607H133.744c-4.877,0-10.488.134-13.56,4.342-1.4,1.8-2,4.141-2,7.147,0,8.818,5.411,11.757,19.3,11.757,7.214,0,11.957-1.136,14.829-3.607l.735,3.073h6.746"/><path class="cls-1" d="M208.155,226.279V205.973c0-7.013-.334-8.483-2-9.752-1.6-1.2-4.809-1.937-9.685-1.937a48.961,48.961,0,0,0-12.825,1.67v30.325h-7.949V189.14h7.147l.534,2.672a20.517,20.517,0,0,1,4.476-2,36.752,36.752,0,0,1,10.487-1.2,29.579,29.579,0,0,1,12.023,2.138,8.7,8.7,0,0,1,5.144,6.479,34.227,34.227,0,0,1,.6,7.815v21.241h-7.949"/><path class="cls-1" d="M267.137,224.008c-3.674,1.871-9.686,2.672-17.5,2.672a53.1,53.1,0,0,1-13.359-1.336c-3.741-.868-5.611-2.6-5.812-5.811a27.524,27.524,0,0,1,.2-5.143h7.681c.267,1.87.267,2.471.334,2.872.267,1.737.134,2.672,2.2,3.34a35.843,35.843,0,0,0,9.285.868c5.077,0,8.617-.535,10.955-1.6,1.67-.735,2.471-2.071,2.471-4.609,0-2.939-.6-4.141-3.673-4.609a19.771,19.771,0,0,0-2.873-.267c-.534-.067-2.271-.067-5.076-.134-1.336,0-2.872-.134-4.676-.2-7.949-.4-16.365-.735-16.365-10.02,0-8.416,5.143-11.355,19.3-11.355a98.634,98.634,0,0,1,10.688.6,20.294,20.294,0,0,1,7.08,1.87c1.87,1.069,2.471,2.739,2.471,5.678a24.42,24.42,0,0,1-.133,2.872h-7.749l-.333-1.67c-.4-2-.535-2.4-1.2-2.872-1.135-.868-4.542-1.269-9.351-1.269s-7.548.2-9.752,1c-2.071.735-3.006,2.071-3.006,4.743a4.481,4.481,0,0,0,1.536,3.74c2.071,1.269,13.025,1.136,16.766,1.2a27.515,27.515,0,0,1,8.884,1.2c4.074,1.4,5.678,4.074,5.678,9.485,0,4.342-1.4,7.08-4.676,8.75"/><path class="cls-1" d="M316.165,226.279,297,208.712h-2.806v17.567h-8.015V173.243h8.015v30.192H297l15.9-14.3h9.352l-18.5,16.365,23.045,20.774h-10.62"/><path class="cls-1" d="M366.33,204.1H340.747c.267-4.676,1.269-6.747,3.072-8.083,1.871-1.336,5.277-2,10.287-2,6.947,0,10.22,1.536,11.422,4.743A14.155,14.155,0,0,1,366.33,204.1Zm7.347,10.554H365.8c-.267,1.135-.4,4.007-1.469,5.076-1.2,1.2-3.607,1.737-10.02,1.737-6.345,0-9.819-.868-11.622-2.672-1.336-1.336-2.138-4.141-2.138-8.483v-1h33.332c.067-1.8.2-2.272.2-3.741,0-6.145-.868-9.552-3.54-12.157-3.006-3.139-8.817-4.676-16.833-4.676-10.22,0-16.5,2.338-19.1,7.481-1.537,2.939-2.4,7.081-2.4,12.224,0,8.083,2.137,13.159,6.88,15.7,2.939,1.6,8.016,2.538,14.5,2.605,5.411,0,9.752-.267,14.5-1.67,4.609-1.469,5.744-4.074,5.744-6.278,0-.535,0-2.338-.133-4.142"/><path class="cls-2" d="M141.823,321.081c0,8.526-4.81,10.275-14.72,10.275H105.168V312.992H128.2c8.817,0,13.627.8,13.627,8.088Zm11.441,26.962c0-7.141-4.081-12.388-13.846-13.918v-.146c7.579-1.967,11.66-5.9,11.66-12.1,0-10.2-4.956-15.376-19.02-15.376H95.841v57.86h37.675c12.679,0,19.748-5.757,19.748-16.323Zm-9.328.656c0,8.235-5.829,9.037-14.866,9.037h-23.9V337.915h25.068c10.712,0,13.7,3.424,13.7,10.784"/><path class="cls-2" d="M200.557,350.084c0,3.352-.218,6.412-4.08,7.8-2.259.874-5.466,1.166-10.858,1.166s-8.6-.51-10.494-1.749c-1.311-.8-1.822-2.113-1.822-4.882,0-3.5.875-5.466,2.624-6.267,1.6-.8,3.716-.948,10.348-.948h14.282Zm8.818,14.283V341.631a65.41,65.41,0,0,0-.365-9.474,7.733,7.733,0,0,0-2.987-5.246c-4.227-3.279-14.575-3.352-19.676-3.352-3.862,0-14.355.437-18.218,3.716a4.679,4.679,0,0,0-1.6,4.008c0,1.02.146,2.4.219,4.227h8.526c.218-1.021.364-3.5,1.311-4.518,1.166-1.094,3.134-1.531,8.964-1.531,6.7,0,11.368.219,13.335,1.312,1.822,1.02,1.676,3.206,1.676,4.882v3.935h-19.6c-5.32,0-11.441.146-14.793,4.737a12.688,12.688,0,0,0-2.186,7.8c0,9.619,5.9,12.826,21.06,12.826,7.943,0,13.044-1.239,16.177-3.935l.8,3.352h7.36"/><path class="cls-2" d="M259.948,364.367V342.214c0-7.652-.364-9.255-2.186-10.64-1.749-1.311-5.247-2.113-10.567-2.113a53.426,53.426,0,0,0-13.991,1.822v33.084h-8.672V323.85h7.8l.656,2.915a19.629,19.629,0,0,1,4.883-2.186,39.184,39.184,0,0,1,11.368-1.312,32.289,32.289,0,0,1,13.117,2.332,9.757,9.757,0,0,1,5.684,7.069,38.529,38.529,0,0,1,.582,8.526v23.173h-8.671"/><path class="cls-2" d="M316.5,364.367,295.582,345.2h-3.133v19.166h-8.672v-57.86h8.672v32.938h3.133l17.343-15.595h10.13L302.869,341.7l25.141,22.663H316.5"/></g></svg>